<?xml version="1.0" encoding="UTF-8" standalone="no"?>
<!DOCTYPE svg PUBLIC "-//W3C//DTD SVG 1.1//EN"
 "http://www.w3.org/Graphics/SVG/1.1/DTD/svg11.dtd">
<!-- Generated by graphviz version 2.40.1 (20161225.0304)
 -->
<!-- Title: %3 Pages: 1 -->
<svg width="671pt" height="317pt"
 viewBox="0.00 0.00 671.00 317.00" xmlns="http://www.w3.org/2000/svg" xmlns:xlink="http://www.w3.org/1999/xlink">
<g id="graph0" class="graph" transform="scale(1 1) rotate(0) translate(4 313)">
<title>%3</title>
<polygon fill="#ffffff" stroke="transparent" points="-4,4 -4,-313 667,-313 667,4 -4,4"/>
<!-- c -->
<g id="node1" class="node">
<title>c</title>
<ellipse fill="none" stroke="#000000" cx="289.5" cy="-269.5" rx="71.5" ry="35.5"/>
<ellipse fill="none" stroke="#000000" cx="289.5" cy="-269.5" rx="75.5" ry="39.5"/>
<text text-anchor="middle" x="289.5" y="-265.8" font-family="Times,serif" font-size="14.00" fill="#000000">go to cheese</text>
</g>
<!-- a -->
<g id="node2" class="node">
<title>a</title>
<ellipse fill="none" stroke="#000000" cx="71.5" cy="-35.5" rx="71.5" ry="35.5"/>
<text text-anchor="middle" x="71.5" y="-31.8" font-family="Times,serif" font-size="14.00" fill="#000000">go to mid</text>
</g>
<!-- c&#45;&gt;a -->
<g id="edge2" class="edge">
<title>c&#45;&gt;a</title>
<path fill="none" stroke="#000000" d="M216.6516,-258.6504C157.9794,-245.6593 79.1319,-217.6272 40.5,-158 25.1101,-134.2462 33.1062,-103.3211 44.8252,-78.4864"/>
<polygon fill="#000000" stroke="#000000" points="48.0829,-79.7993 49.4579,-69.2941 41.8318,-76.6489 48.0829,-79.7993"/>
<text text-anchor="middle" x="75" y="-146.8" font-family="Times,serif" font-size="14.00" fill="#000000">	arrived</text>
</g>
<!-- b -->
<g id="node3" class="node">
<title>b</title>
<ellipse fill="none" stroke="#000000" cx="591.5" cy="-35.5" rx="71.5" ry="35.5"/>
<text text-anchor="middle" x="591.5" y="-31.8" font-family="Times,serif" font-size="14.00" fill="#000000">hunt</text>
</g>
<!-- c&#45;&gt;b -->
<g id="edge4" class="edge">
<title>c&#45;&gt;b</title>
<path fill="none" stroke="#000000" d="M263.5031,-232.1285C248.2672,-205.1902 235.4105,-169.1265 254.5,-143 285.3614,-100.7619 424.3936,-67.133 513.9574,-49.3607"/>
<polygon fill="#000000" stroke="#000000" points="514.6729,-52.7871 523.8131,-47.4292 513.3267,-45.9178 514.6729,-52.7871"/>
<text text-anchor="middle" x="345" y="-146.8" font-family="Times,serif" font-size="14.00" fill="#000000">m_c_d &lt; P1 &amp;&amp; m_ch_d &gt; P2	</text>
</g>
<!-- a&#45;&gt;b -->
<g id="edge1" class="edge">
<title>a&#45;&gt;b</title>
<path fill="none" stroke="#000000" d="M143.2578,-35.5C239.1506,-35.5 408.6753,-35.5 509.5046,-35.5"/>
<polygon fill="#000000" stroke="#000000" points="509.6442,-39.0001 519.6442,-35.5 509.6442,-32.0001 509.6442,-39.0001"/>
<text text-anchor="middle" x="331.5" y="-42.3" font-family="Times,serif" font-size="14.00" fill="#000000">arrived || (m_c_d &lt; P1 &amp;&amp; m_ch_d &gt; P2)</text>
</g>
<!-- b&#45;&gt;c -->
<g id="edge3" class="edge">
<title>b&#45;&gt;c</title>
<path fill="none" stroke="#000000" d="M563.3779,-68.3819C540.2162,-94.3875 505.7299,-130.7314 471.5,-158 434.0939,-187.7989 388.1458,-215.8912 351.7762,-236.4238"/>
<polygon fill="#000000" stroke="#000000" points="349.7637,-233.5392 342.747,-241.4775 353.1827,-239.6475 349.7637,-233.5392"/>
<text text-anchor="middle" x="568.5" y="-146.8" font-family="Times,serif" font-size="14.00" fill="#000000">	m_ch_d + P3 &lt; c_ch_d</text>
</g>
</g>
</svg>
